<svg version="1.1" xmlns="http://www.w3.org/2000/svg" width="3130" height="1024" viewBox="0 0 3130 1024">

    <path fill="#008ad1" d="M238.933 108.424h2778.855v809.161h-2778.855v-809.161z"></path>
    <path fill="#ee7d00" d="M114.447 194.761h578.259v632.471h-578.259v-632.471z"></path>

    <path fill="#fff" d="M483.89 393.537h-160.627v-24.094h160.627v24.094zM483.89 423.655h-160.627v-22.086h160.627v22.086zM323.263 461.804h160.627v22.086h-160.627v-22.086zM483.89 453.773h-160.627v-22.086h160.627v22.086zM385.506 361.412h-74.29v136.533h74.29v132.518l-98.384 100.392h232.91l-96.376-100.392v-132.518h70.275v-136.533h-70.275v-42.165h102.4v-22.086h-246.965v22.086h106.416v42.165z"></path>

    <path fill="#fff" d="M3015.78 108.424v809.161h-2776.847v-88.345h-124.486v-634.478h124.486v-86.337h2776.847zM3074.008 50.196h-2893.302v86.337h-124.486v744.91h124.486v86.337h2891.294v-917.584h2.008z"></path>

    <path fill="#fff" d="M829.239 391.529l-20.078-144.565h-62.243l50.196 220.863h60.235l60.235-220.863h-64.251z"></path>
    <path fill="#fff" d="M1001.914 391.529l-20.078-144.565h-64.251l52.204 220.863h60.235l60.235-220.863h-64.251z"></path>
    <path fill="#fff" d="M1264.941 467.827h62.243l-20.078-220.863h-74.29l-20.078 118.463-18.071-118.463h-74.29l-26.102 220.863h64.251l6.024-138.541 22.086 138.541h48.188l26.102-138.541z"></path>

    <path fill="#fff" d="M1431.592 349.365h70.275v54.212h-70.275v-54.212z"></path>

    <path fill="#fff" d="M1682.573 467.827v-220.863h-60.235v220.863h60.235z"></path>
    <path fill="#fff" d="M1863.278 323.263c0-58.227-40.157-74.29-92.361-74.29h-54.212v220.863h60.235v-72.282c50.196 0 86.337-18.071 86.337-74.29v0zM1803.043 321.255c0 16.063-10.039 26.102-26.102 24.094v-50.196h4.016c14.055 0 22.086 12.047 22.086 26.102v0z"></path>
    <path fill="#fff" d="M1997.804 397.553c0-16.063-4.016-28.11-10.039-38.149s-16.063-18.071-30.118-26.102c-4.016-2.008-8.031-6.024-10.039-10.039-4.016-4.016-6.024-8.031-6.024-12.047 0-8.031 8.031-14.055 16.063-14.055 14.055 0 28.11 12.047 36.141 24.094v-66.259c-12.047-6.024-28.11-12.047-42.165-12.047-50.196 0-68.267 46.18-68.267 72.282 0 16.063 4.016 28.11 12.047 38.149s18.071 18.071 30.118 28.11c4.016 2.008 8.031 6.024 10.039 8.031 2.008 4.016 4.016 8.031 4.016 12.047 0 10.039-10.039 14.055-18.071 14.055-16.063 0-30.118-12.047-38.149-24.094v68.267c14.055 6.024 30.118 10.039 44.173 10.039 40.157 2.008 70.275-30.118 70.275-72.282v0z"></path>
    <path fill="#fff" d="M2188.549 357.396c0-54.212-24.094-114.447-84.329-114.447s-84.329 60.235-84.329 114.447 24.094 114.447 84.329 114.447c60.235 0 84.329-60.235 84.329-114.447v0zM2128.314 357.396c0 14.055 0 58.227-24.094 58.227-22.086 0-24.094-44.173-24.094-58.227s0-58.227 24.094-58.227c24.094 0 24.094 44.173 24.094 58.227v0z"></path>

    <path fill="#fff" d="M2417.443 417.631c0-26.102-16.063-36.141-38.149-44.173-6.024-2.008-18.071-6.024-18.071-14.055 0-4.016 4.016-8.031 8.031-8.031 10.039 0 18.071 8.031 24.094 14.055l20.078-42.165c-14.055-8.031-32.125-12.047-48.188-12.047-36.141 0-62.243 20.078-62.243 52.204 0 26.102 18.071 38.149 40.157 46.18 10.039 4.016 14.055 6.024 14.055 12.047s-6.024 8.031-12.047 8.031c-10.039 0-22.086-8.031-28.11-16.063l-22.086 42.165c18.071 10.039 34.133 16.063 56.22 16.063 36.141 2.008 66.259-18.071 66.259-54.212v0z"></path>
    <path fill="#fff" d="M2505.788 439.718c0-20.078-16.063-34.133-34.133-34.133s-32.125 16.063-32.125 34.133c0 18.071 14.055 34.133 34.133 34.133 16.063 0 32.125-16.063 32.125-34.133v0z"></path>
    <path fill="#fff" d="M2628.267 375.467v-64.251c-22.086 0-36.141 14.055-42.165 34.133v0l4.016-30.118h-58.227v156.612h58.227v-62.243c0-16.063 2.008-36.141 24.094-36.141 2.008-4.016 10.039 0 14.055 2.008v0z"></path>
    <path fill="#fff" d="M2696.533 439.718c0-20.078-16.063-34.133-34.133-34.133s-32.125 16.063-32.125 34.133c0 18.071 14.055 34.133 34.133 34.133 16.063 0 32.125-16.063 32.125-34.133v0z"></path>
    <path fill="#fff" d="M2786.886 309.208c-50.196 0-72.282 38.149-72.282 80.314 0 44.173 22.086 80.314 72.282 80.314s72.282-38.149 72.282-80.314c0-42.165-22.086-80.314-72.282-80.314zM2786.886 427.671c-14.055 0-16.063-22.086-16.063-38.149s2.008-38.149 16.063-38.149c14.055 0 16.063 22.086 16.063 38.149s-2.008 38.149-16.063 38.149z"></path>
    <path fill="#fff" d="M2947.514 439.718c0-20.078-16.063-34.133-34.133-34.133s-32.125 16.063-32.125 34.133c0 18.071 14.055 34.133 34.133 34.133 16.063 0 32.125-16.063 32.125-34.133v0z"></path>

    <path fill="#fff" d="M795.106 771.012h60.235v-84.329h42.165v-52.204h-42.165v-32.125h46.18v-52.204h-106.416z"></path>
    <path fill="#fff" d="M1084.235 694.714v-144.565h-60.235v140.549c0 6.024 0 14.055-2.008 20.078s-6.024 10.039-14.055 10.039c-8.031 0-12.047-4.016-14.055-10.039s-2.008-14.055-2.008-20.078v-138.541h-60.235v144.565c0 26.102 6.024 80.314 76.298 80.314 70.275-2.008 76.298-56.22 76.298-82.322v0z"></path>
    <path fill="#fff" d="M1178.604 550.149h-60.235v220.863h106.416v-52.204h-46.18z"></path>
    <path fill="#fff" d="M1347.263 606.369l6.024 76.298-48.188-132.518h-56.22v220.863h58.227v-64.251l-6.024-62.243 46.18 126.494h58.227v-220.863h-58.227z"></path>
    <path fill="#fff" d="M1439.624 771.012h110.431v-52.204h-50.196v-34.133h46.18v-52.204h-46.18v-30.118h50.196v-52.204h-110.431z"></path>
    <path fill="#fff" d="M1742.808 550.149h-64.251l-34.133 94.369v-94.369h-58.227v220.863h58.227l2.008-100.392 36.141 100.392h64.251l-52.204-116.455z"></path>

</svg>
